# Blender 4.2.3 LTS
# www.blender.org
mtllib prism_jewel.mtl
o Cube
v 0.000000 -1.259395 0.000000
v 0.000000 0.345386 0.000000
v 0.681320 0.345815 -0.681320
v 0.848705 0.259233 -0.715912
v 0.715912 0.259233 -0.848705
v 0.000000 0.346708 -0.779755
v 0.000000 0.263846 -0.956343
v 0.829747 0.085785 -0.964216
v 0.964216 0.085785 -0.829747
v 0.937344 -0.078908 -0.937344
v 0.956344 0.263846 0.000000
v 0.779755 0.346708 0.000000
v 1.099528 -0.078362 0.000000
v 1.104548 0.083781 0.000000
v 0.000000 0.083781 -1.104548
v 0.000000 -0.078362 -1.099528
v -0.681320 0.345815 -0.681320
v -0.848705 0.259233 -0.715912
v -0.715912 0.259233 -0.848705
v -0.829747 0.085785 -0.964216
v -0.964216 0.085785 -0.829747
v -0.937344 -0.078908 -0.937344
v -0.956344 0.263846 0.000000
v -0.779755 0.346708 0.000000
v -1.099528 -0.078362 0.000000
v -1.104548 0.083781 0.000000
v 0.681320 0.345815 0.681320
v 0.848705 0.259233 0.715912
v 0.715912 0.259233 0.848705
v 0.000000 0.346708 0.779755
v 0.000000 0.263846 0.956343
v 0.829747 0.085785 0.964216
v 0.964216 0.085785 0.829747
v 0.937344 -0.078908 0.937344
v 0.000000 0.083781 1.104548
v 0.000000 -0.078362 1.099528
v -0.681320 0.345815 0.681320
v -0.848705 0.259233 0.715912
v -0.715912 0.259233 0.848705
v -0.829747 0.085785 0.964216
v -0.964216 0.085785 0.829747
v -0.937344 -0.078908 0.937344
vn 0.7754 0.6189 -0.1254
vn 0.1254 0.6189 -0.7754
vn 0.1252 -0.6760 -0.7261
vn 0.7261 -0.6760 -0.1252
vn 0.3666 0.8551 -0.3666
vn 0.6681 0.3275 -0.6681
vn 0.0678 0.8977 -0.4354
vn 0.5165 0.6830 -0.5165
vn 0.4354 0.8977 -0.0678
vn 0.9848 -0.0406 -0.1686
vn 0.1686 -0.0406 -0.9848
vn -0.0003 1.0000 0.0003
vn -0.7754 0.6189 -0.1254
vn -0.1254 0.6189 -0.7754
vn -0.1252 -0.6760 -0.7261
vn -0.7261 -0.6760 -0.1252
vn -0.3666 0.8551 -0.3666
vn -0.6681 0.3275 -0.6681
vn -0.0678 0.8977 -0.4354
vn -0.5165 0.6830 -0.5165
vn -0.4354 0.8977 -0.0678
vn -0.9848 -0.0406 -0.1686
vn -0.1686 -0.0406 -0.9848
vn 0.0003 1.0000 0.0003
vn 0.7754 0.6189 0.1254
vn 0.1254 0.6189 0.7754
vn 0.1252 -0.6760 0.7261
vn 0.7261 -0.6760 0.1252
vn 0.3666 0.8551 0.3666
vn 0.6681 0.3275 0.6681
vn 0.0678 0.8977 0.4354
vn 0.5165 0.6830 0.5165
vn 0.4354 0.8977 0.0678
vn 0.9848 -0.0406 0.1686
vn 0.1686 -0.0406 0.9848
vn -0.0003 1.0000 -0.0003
vn -0.7754 0.6189 0.1254
vn -0.1254 0.6189 0.7754
vn -0.1252 -0.6760 0.7261
vn -0.7261 -0.6760 0.1252
vn -0.3666 0.8551 0.3666
vn -0.6681 0.3275 0.6681
vn -0.0678 0.8977 0.4354
vn -0.5165 0.6830 0.5165
vn -0.4354 0.8977 0.0678
vn -0.9848 -0.0406 0.1686
vn -0.1686 -0.0406 0.9848
vn 0.0003 1.0000 -0.0003
vt 0.537836 0.521289
vt 0.615120 0.535491
vt 0.616321 0.625000
vt 0.536760 0.625000
vt 0.530030 0.375000
vt 0.595025 0.375000
vt 0.613005 0.502431
vt 0.537065 0.491023
vt 0.375000 0.375000
vt 0.492168 0.375000
vt 0.492168 0.492168
vt 0.300683 0.574317
vt 0.487512 0.504656
vt 0.487512 0.621824
vt 0.650152 0.512383
vt 0.630291 0.523853
vt 0.552785 0.509664
vt 0.500000 0.493717
vt 0.625553 0.378021
vt 0.666206 0.541206
vt 0.664835 0.625000
vt 0.750000 0.539835
vt 0.750000 0.625000
s 0
f 9/1/1 4/2/1 11/3/1 14/4/1
f 15/5/2 7/6/2 5/7/2 8/8/2
f 1/9/3 16/10/3 10/11/3
f 1/12/4 10/13/4 13/14/4
f 3/15/5 4/16/5 5/7/5
f 8/8/6 9/17/6 10/18/6
f 6/19/7 3/15/7 5/7/7 7/6/7
f 4/2/8 9/1/8 8/8/8 5/7/8
f 3/20/9 12/21/9 11/3/9 4/2/9
f 9/1/10 14/4/10 13/14/10 10/13/10
f 15/5/11 8/8/11 10/11/11 16/10/11
f 3/20/12 6/22/12 2/23/12 12/21/12
f 21/1/13 26/4/13 23/3/13 18/2/13
f 15/5/14 20/8/14 19/7/14 7/6/14
f 1/9/15 22/11/15 16/10/15
f 1/12/16 25/14/16 22/13/16
f 17/15/17 19/7/17 18/16/17
f 20/8/18 22/18/18 21/17/18
f 6/19/19 7/6/19 19/7/19 17/15/19
f 18/2/20 19/7/20 20/8/20 21/1/20
f 17/20/21 18/2/21 23/3/21 24/21/21
f 21/1/22 22/13/22 25/14/22 26/4/22
f 15/5/23 16/10/23 22/11/23 20/8/23
f 17/20/24 24/21/24 2/23/24 6/22/24
f 33/1/25 14/4/25 11/3/25 28/2/25
f 35/5/26 32/8/26 29/7/26 31/6/26
f 1/9/27 34/11/27 36/10/27
f 1/12/28 13/14/28 34/13/28
f 27/15/29 29/7/29 28/16/29
f 32/8/30 34/18/30 33/17/30
f 30/19/31 31/6/31 29/7/31 27/15/31
f 28/2/32 29/7/32 32/8/32 33/1/32
f 27/20/33 28/2/33 11/3/33 12/21/33
f 33/1/34 34/13/34 13/14/34 14/4/34
f 35/5/35 36/10/35 34/11/35 32/8/35
f 27/20/36 12/21/36 2/23/36 30/22/36
f 41/1/37 38/2/37 23/3/37 26/4/37
f 35/5/38 31/6/38 39/7/38 40/8/38
f 1/9/39 36/10/39 42/11/39
f 1/12/40 42/13/40 25/14/40
f 37/15/41 38/16/41 39/7/41
f 40/8/42 41/17/42 42/18/42
f 30/19/43 37/15/43 39/7/43 31/6/43
f 38/2/44 41/1/44 40/8/44 39/7/44
f 37/20/45 24/21/45 23/3/45 38/2/45
f 41/1/46 26/4/46 25/14/46 42/13/46
f 35/5/47 40/8/47 42/11/47 36/10/47
f 37/20/48 30/22/48 2/23/48 24/21/48
